# xmcd
#
# Track frame offsets: 
#        150
#        26765
#        73488
#        124432
#        154788
#
# Disc length: 2458 seconds
#
# Revision: 0
# Processed by: cddbd v1.5.2PL0 Copyright (c) Steve Scherf et al.
# Submitted via: ExactAudioCopy v1.2
#
DISCID=49099805
DTITLE=SaRon Crenshaw - Drivin' [CD2]
DYEAR=2017
DGENRE=Blues
TTITLE0=Jailer Blues
TTITLE1=Feel Like Crying
TTITLE2=Memories
TTITLE3=Betty Lane
TTITLE4=I Hear the Music
EXTD=
EXTT0=
EXTT1=
EXTT2=
EXTT3=
EXTT4=
PLAYORDER=
